<svg width="139" height="41" viewBox="0 0 139 41" fill="none" xmlns="http://www.w3.org/2000/svg">
<g filter="url(#filter0_b_171_3625)">
<rect x="0.866699" width="137.267" height="41" rx="20.5" fill="white" fill-opacity="0.25"/>
<rect x="1.43781" y="0.571111" width="136.124" height="39.8578" rx="19.9289" stroke="url(#paint0_linear_171_3625)" stroke-width="1.14222"/>
<path d="M24.2889 15.5C24.8389 15.5 25.2889 15.95 25.2889 16.5V20.5C25.2889 21.05 24.8389 21.5 24.2889 21.5C23.7389 21.5 23.2889 21.05 23.2889 20.5V16.5C23.2889 15.95 23.7389 15.5 24.2889 15.5ZM24.2789 10.5C18.7589 10.5 14.2889 14.98 14.2889 20.5C14.2889 26.02 18.7589 30.5 24.2789 30.5C29.8089 30.5 34.2889 26.02 34.2889 20.5C34.2889 14.98 29.8089 10.5 24.2789 10.5ZM24.2889 28.5C19.8689 28.5 16.2889 24.92 16.2889 20.5C16.2889 16.08 19.8689 12.5 24.2889 12.5C28.7089 12.5 32.2889 16.08 32.2889 20.5C32.2889 24.92 28.7089 28.5 24.2889 28.5ZM25.2889 25.5H23.2889V23.5H25.2889V25.5Z" fill="white" fill-opacity="0.87"/>
<path d="M49.6399 23.7482H51.908C52.9613 23.7482 53.7429 23.4212 54.2525 22.7671C54.7707 22.1045 55.0298 21.1743 55.0298 19.9765C55.0298 17.4196 54.0189 16.1412 51.9972 16.1412H49.6399V23.7482ZM48.7862 24.5V15.3894H52.0227C53.3224 15.3894 54.295 15.8014 54.9406 16.6254C55.5947 17.4494 55.9218 18.5664 55.9218 19.9765C55.9218 21.3697 55.582 22.474 54.9024 23.2895C54.2313 24.0965 53.2417 24.5 51.9335 24.5H48.7862ZM59.7719 24.6656C58.812 24.6656 58.0602 24.3471 57.5165 23.71C56.9729 23.0644 56.701 22.2319 56.701 21.2125C56.701 20.2102 56.9771 19.3862 57.5293 18.7406C58.0814 18.0865 58.8077 17.7594 59.7082 17.7594C60.2178 17.7594 60.6596 17.8571 61.0333 18.0525C61.4156 18.2479 61.7129 18.5197 61.9253 18.868C62.1377 19.2163 62.2906 19.5985 62.384 20.0148C62.4859 20.4225 62.5369 20.8685 62.5369 21.3527H57.5165C57.5335 22.1342 57.7331 22.7713 58.1154 23.264C58.4977 23.7482 59.0498 23.9903 59.7719 23.9903C60.7743 23.9903 61.4156 23.4976 61.6959 22.5122H62.4605C62.316 23.1748 62.0102 23.7015 61.543 24.0923C61.0843 24.4745 60.4939 24.6656 59.7719 24.6656ZM57.5293 20.7283H61.7087C61.6917 20.0403 61.5133 19.4839 61.1735 19.0591C60.8422 18.6259 60.3538 18.4093 59.7082 18.4093C59.0711 18.4093 58.5656 18.6216 58.1919 19.0464C57.8266 19.4711 57.6057 20.0318 57.5293 20.7283ZM63.5539 24.5V15.3894H64.3439V24.5H63.5539ZM68.4325 24.6656C67.4726 24.6656 66.7208 24.3471 66.1772 23.71C65.6335 23.0644 65.3617 22.2319 65.3617 21.2125C65.3617 20.2102 65.6378 19.3862 66.1899 18.7406C66.7421 18.0865 67.4684 17.7594 68.3688 17.7594C68.8785 17.7594 69.3202 17.8571 69.694 18.0525C70.0763 18.2479 70.3736 18.5197 70.586 18.868C70.7983 19.2163 70.9512 19.5985 71.0447 20.0148C71.1466 20.4225 71.1976 20.8685 71.1976 21.3527H66.1772C66.1942 22.1342 66.3938 22.7713 66.7761 23.264C67.1583 23.7482 67.7105 23.9903 68.4325 23.9903C69.4349 23.9903 70.0763 23.4976 70.3566 22.5122H71.1211C70.9767 23.1748 70.6709 23.7015 70.2037 24.0923C69.745 24.4745 69.1546 24.6656 68.4325 24.6656ZM66.1899 20.7283H70.3693C70.3523 20.0403 70.174 19.4839 69.8342 19.0591C69.5029 18.6259 69.0144 18.4093 68.3688 18.4093C67.7317 18.4093 67.2263 18.6216 66.8525 19.0464C66.4872 19.4711 66.2664 20.0318 66.1899 20.7283ZM73.7991 24.551C72.9581 24.551 72.5376 24.156 72.5376 23.366V18.5622H71.5437V17.9123H72.5376V15.8863H73.3276V17.9123H74.5508V18.5622H73.3276V23.2385C73.3276 23.4679 73.3786 23.6293 73.4805 23.7227C73.5824 23.8162 73.7438 23.8629 73.9647 23.8629C74.1601 23.8629 74.3342 23.8289 74.4871 23.761H74.5254V24.4363C74.313 24.5127 74.0709 24.551 73.7991 24.551ZM78.1882 24.6656C77.2283 24.6656 76.4765 24.3471 75.9329 23.71C75.3892 23.0644 75.1174 22.2319 75.1174 21.2125C75.1174 20.2102 75.3934 19.3862 75.9456 18.7406C76.4978 18.0865 77.2241 17.7594 78.1245 17.7594C78.6342 17.7594 79.0759 17.8571 79.4497 18.0525C79.832 18.2479 80.1293 18.5197 80.3416 18.868C80.554 19.2163 80.7069 19.5985 80.8004 20.0148C80.9023 20.4225 80.9533 20.8685 80.9533 21.3527H75.9329C75.9499 22.1342 76.1495 22.7713 76.5317 23.264C76.914 23.7482 77.4662 23.9903 78.1882 23.9903C79.1906 23.9903 79.8319 23.4976 80.1123 22.5122H80.8768C80.7324 23.1748 80.4266 23.7015 79.9594 24.0923C79.5007 24.4745 78.9103 24.6656 78.1882 24.6656ZM75.9456 20.7283H80.125C80.108 20.0403 79.9296 19.4839 79.5898 19.0591C79.2586 18.6259 78.7701 18.4093 78.1245 18.4093C77.4874 18.4093 76.982 18.6216 76.6082 19.0464C76.2429 19.4711 76.0221 20.0318 75.9456 20.7283ZM83.2877 24.5L86.728 15.3894H87.6964L91.1623 24.5H90.2448L89.1873 21.633H85.2245L84.1541 24.5H83.2877ZM85.4793 20.9322H88.9324L87.6837 17.5301L87.225 16.2049H87.1995C87.0381 16.7231 86.8894 17.1648 86.7535 17.5301L85.4793 20.9322ZM94.3256 24.6656C93.3912 24.6656 92.6564 24.3428 92.1212 23.6972C91.5946 23.0516 91.3312 22.2234 91.3312 21.2125C91.3312 20.2017 91.5988 19.3734 92.134 18.7278C92.6691 18.0822 93.4039 17.7594 94.3384 17.7594C95.0689 17.7594 95.6635 17.9506 96.1223 18.3328C96.5895 18.7066 96.8783 19.229 96.9887 19.9001H96.1987C96.0033 18.9147 95.3832 18.422 94.3384 18.422C93.6163 18.422 93.0684 18.6853 92.6946 19.212C92.3293 19.7302 92.1467 20.397 92.1467 21.2125C92.1467 22.028 92.3293 22.6949 92.6946 23.213C93.0684 23.7312 93.6121 23.9903 94.3256 23.9903C94.8778 23.9903 95.3237 23.8332 95.6635 23.5189C96.0033 23.1961 96.2072 22.7671 96.2752 22.2319H97.0269C96.9505 22.9879 96.6744 23.5826 96.1987 24.0158C95.723 24.449 95.0986 24.6656 94.3256 24.6656ZM100.585 24.6656C99.6503 24.6656 98.9155 24.3428 98.3803 23.6972C97.8536 23.0516 97.5903 22.2234 97.5903 21.2125C97.5903 20.2017 97.8579 19.3734 98.393 18.7278C98.9282 18.0822 99.663 17.7594 100.597 17.7594C101.328 17.7594 101.923 17.9506 102.381 18.3328C102.849 18.7066 103.137 19.229 103.248 19.9001H102.458C102.262 18.9147 101.642 18.422 100.597 18.422C99.8754 18.422 99.3275 18.6853 98.9537 19.212C98.5884 19.7302 98.4058 20.397 98.4058 21.2125C98.4058 22.028 98.5884 22.6949 98.9537 23.213C99.3275 23.7312 99.8711 23.9903 100.585 23.9903C101.137 23.9903 101.583 23.8332 101.923 23.5189C102.262 23.1961 102.466 22.7671 102.534 22.2319H103.286C103.21 22.9879 102.933 23.5826 102.458 24.0158C101.982 24.449 101.358 24.6656 100.585 24.6656ZM106.907 24.0031C107.613 24.0031 108.16 23.7397 108.551 23.213C108.942 22.6864 109.137 22.0195 109.137 21.2125C109.137 20.4055 108.942 19.7387 108.551 19.212C108.16 18.6853 107.613 18.422 106.907 18.422C106.194 18.422 105.642 18.6853 105.251 19.212C104.86 19.7387 104.665 20.4055 104.665 21.2125C104.665 22.0195 104.86 22.6864 105.251 23.213C105.642 23.7397 106.194 24.0031 106.907 24.0031ZM106.907 24.6656C105.973 24.6656 105.23 24.3428 104.678 23.6972C104.125 23.0432 103.849 22.2149 103.849 21.2125C103.849 20.2102 104.125 19.3862 104.678 18.7406C105.23 18.0865 105.973 17.7594 106.907 17.7594C107.833 17.7594 108.568 18.0865 109.112 18.7406C109.664 19.3862 109.94 20.2102 109.94 21.2125C109.94 22.2149 109.664 23.0432 109.112 23.6972C108.568 24.3428 107.833 24.6656 106.907 24.6656ZM113.053 24.6529C112.407 24.6529 111.885 24.4703 111.486 24.105C111.086 23.7312 110.887 23.2173 110.887 22.5632V17.9123H111.677V22.5122C111.677 22.9964 111.813 23.366 112.085 23.6208C112.356 23.8671 112.739 23.9903 113.231 23.9903C113.792 23.9903 114.251 23.8034 114.607 23.4297C114.964 23.0559 115.143 22.5887 115.143 22.028V17.9123H115.92V24.5H115.143V23.5316H115.117C114.854 23.8884 114.565 24.1645 114.251 24.3598C113.936 24.5552 113.537 24.6529 113.053 24.6529ZM117.247 24.5V17.9123H118.037V18.919H118.062C118.58 18.1544 119.315 17.7722 120.266 17.7722C120.895 17.7722 121.401 17.9548 121.783 18.3201C122.174 18.6769 122.369 19.178 122.369 19.8236V24.5H121.579V19.9001C121.579 18.9317 121.078 18.4475 120.075 18.4475C119.506 18.4475 119.022 18.6259 118.623 18.9827C118.232 19.3394 118.037 19.7854 118.037 20.3206V24.5H117.247ZM125.327 24.551C124.487 24.551 124.066 24.156 124.066 23.366V18.5622H123.072V17.9123H124.066V15.8863H124.856V17.9123H126.079V18.5622H124.856V23.2385C124.856 23.4679 124.907 23.6293 125.009 23.7227C125.111 23.8162 125.272 23.8629 125.493 23.8629C125.689 23.8629 125.863 23.8289 126.016 23.761H126.054V24.4363C125.841 24.5127 125.599 24.551 125.327 24.551Z" fill="white"/>
</g>
<defs>
<filter id="filter0_b_171_3625" x="-44.1369" y="-45.0036" width="227.274" height="131.007" filterUnits="userSpaceOnUse" color-interpolation-filters="sRGB">
<feFlood flood-opacity="0" result="BackgroundImageFix"/>
<feGaussianBlur in="BackgroundImageFix" stdDeviation="22.5018"/>
<feComposite in2="SourceAlpha" operator="in" result="effect1_backgroundBlur_171_3625"/>
<feBlend mode="normal" in="SourceGraphic" in2="effect1_backgroundBlur_171_3625" result="shape"/>
</filter>
<linearGradient id="paint0_linear_171_3625" x1="0.866699" y1="20.5" x2="138.133" y2="20.5" gradientUnits="userSpaceOnUse">
<stop stop-color="white" stop-opacity="0"/>
<stop offset="1" stop-color="white"/>
</linearGradient>
</defs>
</svg>
