<svg width="22" height="25" viewBox="0 0 22 25" fill="none" xmlns="http://www.w3.org/2000/svg">
<path fill-rule="evenodd" clip-rule="evenodd" d="M11.2369 1.78169C11.672 1.78169 12.0244 2.13412 12.0244 2.56918C12.0244 3.00424 11.672 3.35667 11.2369 3.35667C10.8018 3.35667 10.4494 3.00424 10.4494 2.56918C10.4494 2.13412 10.8018 1.78169 11.2369 1.78169ZM14.6129 4.06154C14.9086 4.06154 15.1485 4.30147 15.1485 4.59715C15.1485 4.89284 14.9086 5.13277 14.6129 5.13277C14.3172 5.13277 14.0773 4.89284 14.0773 4.59715C14.0773 4.30147 14.3172 4.06154 14.6129 4.06154ZM7.82212 4.09041C8.1178 4.09041 8.35773 4.33034 8.35773 4.62602C8.35773 4.92171 8.1178 5.16164 7.82212 5.16164C7.52643 5.16164 7.2865 4.92171 7.2865 4.62602C7.2865 4.33034 7.52643 4.09041 7.82212 4.09041ZM11.219 22.1161C11.5147 22.1161 11.7546 22.3561 11.7546 22.6518C11.7546 22.9474 11.5147 23.1874 11.219 23.1874C10.9233 23.1874 10.6834 22.9474 10.6834 22.6518C10.6834 22.3561 10.9233 22.1161 11.219 22.1161ZM14.4665 20.1728C14.7622 20.1728 15.0021 20.4127 15.0021 20.7084C15.0021 21.0041 14.7622 21.244 14.4665 21.244C14.1708 21.244 13.9309 21.0041 13.9309 20.7084C13.9309 20.4127 14.1708 20.1728 14.4665 20.1728ZM17.8186 5.83464C18.2138 5.83464 18.5334 6.15422 18.5334 6.54946C18.5334 6.9447 18.2138 7.26428 17.8186 7.26428C17.4234 7.26428 17.1038 6.9447 17.1038 6.54946C17.1038 6.15422 17.4234 5.83464 17.8186 5.83464ZM2.54561 10.6641C2.8413 10.6641 3.08123 10.9041 3.08123 11.1998C3.08123 11.4954 2.8413 11.7354 2.54561 11.7354C2.24993 11.7354 2.01 11.4954 2.01 11.1998C2.01 10.9041 2.24993 10.6641 2.54561 10.6641ZM2.43511 14.5916C2.73079 14.5916 2.97072 14.8316 2.97072 15.1273C2.97072 15.4229 2.73079 15.6629 2.43511 15.6629C2.13942 15.6629 1.89949 15.4229 1.89949 15.1273C1.89949 14.8316 2.13942 14.5916 2.43511 14.5916ZM5.97136 11.5641C6.11372 11.5641 6.22921 11.6796 6.22921 11.822C6.22921 11.9643 6.11372 12.0798 5.97136 12.0798C5.82899 12.0798 5.71351 11.9643 5.71351 11.822C5.71351 11.6796 5.82899 11.5641 5.97136 11.5641ZM7.7146 15.4857C7.16007 15.4857 6.69414 15.4588 6.13662 15.4598L4.95289 15.4339C4.78166 15.4339 4.69305 15.407 4.55865 15.407C4.55865 14.8923 4.48896 14.4264 4.22812 14.0282C3.5143 12.939 1.99805 12.718 1.0662 13.6508C0.570409 14.1486 0.363331 14.9192 0.538551 15.639C0.696846 16.2901 1.10702 16.7013 1.65359 17.0238C1.74617 17.0845 2.06276 17.207 2.1892 17.2249C2.89207 17.3245 3.3112 17.1333 3.50733 17.1174C3.50235 17.3583 2.95479 17.7715 2.95479 18.8268C2.95479 20.1798 4.50688 21.1206 5.72645 20.5202C5.98032 20.3948 6.27003 20.1668 6.42733 19.9319C6.45919 19.8841 6.47512 19.8383 6.50299 19.7975C6.54182 19.7397 6.57069 19.7308 6.61051 19.668C6.96095 19.1145 6.9042 18.116 6.24315 18.116C5.69957 18.116 5.68862 18.7053 5.65377 18.8417C5.378 19.907 3.94339 19.4321 4.1664 18.4594C4.37945 17.5266 5.44271 17.6948 6.24315 17.6948C6.42932 17.6948 6.63142 17.6789 6.81062 17.7058C7.00874 17.7356 7.78926 17.7008 7.92167 17.664C8.17754 17.5933 8.5001 17.437 8.65242 17.211C8.971 16.7361 9.03173 16.4832 9.03173 15.8013C9.03173 15.0456 8.80375 14.4413 8.23826 13.9903L7.77632 13.5841C7.71758 13.5344 7.68871 13.4915 7.62898 13.4418L7.02566 12.8872C6.5916 12.4581 6.62644 12.6871 6.69514 11.8857C6.70808 11.7374 6.68916 11.5741 6.61848 11.4267C6.56372 11.3113 6.4552 11.1838 6.35565 11.1101C5.70753 10.6373 5.3103 11.2505 5.11119 11.2505H3.90158C3.90158 10.8314 3.89958 10.6144 3.65468 10.2878C3.32016 9.84279 2.7965 9.6835 2.24595 9.80496C1.88257 9.88461 1.53213 10.1962 1.38478 10.469C1.26631 10.688 1.24839 11.0434 1.27527 11.2983C1.29618 11.4905 1.33102 11.5502 1.40668 11.6936C1.69241 12.2361 2.01995 12.4343 2.69196 12.4333C3.34505 12.4333 4.00611 12.4601 4.66518 12.4591C5.11915 12.4591 5.04946 12.3775 5.32822 12.7956C5.68862 13.3372 6.87235 14.3477 7.36814 14.8067C7.56626 15.0028 7.71659 15.0974 7.71659 15.4847L7.7146 15.4857ZM2.71586 6.75255C2.71586 7.21549 2.77658 7.5729 2.97769 7.96316C3.02846 8.06272 3.2226 8.37334 3.30822 8.448C3.58797 8.69092 3.60091 8.77355 4.03 8.9886C4.49493 9.22256 4.76871 9.22554 5.45068 9.22554C5.72545 9.22554 7.32633 9.18771 7.49557 9.25939C7.62798 9.31514 7.66382 9.32012 7.71858 9.45651C7.7813 9.61381 7.75541 9.62178 7.76537 9.83085C7.81017 10.7328 7.81515 11.7194 7.7803 12.6314C7.86393 13.2148 8.0282 13.2675 8.47222 13.623C8.63749 13.7554 8.78383 13.8599 8.97598 13.9615C8.97598 13.5712 9.00186 13.2755 9.00186 12.8833C9.00186 12.3964 9.04069 9.38881 8.94512 9.04733C8.79379 8.50575 8.51503 8.18717 7.96548 8.02688C7.51349 7.89447 5.48254 8.02091 5.04349 7.95022C4.61639 7.88053 4.30378 7.74912 4.09272 7.40166C3.76618 6.86306 4.12856 5.99095 4.81949 5.99095C5.22867 5.99095 5.57911 6.31948 5.65975 6.65001C5.70654 6.84215 5.67568 7.12689 5.74835 7.29713C5.86782 7.57589 6.37058 7.76803 6.66129 7.35985C7.15907 6.66096 6.53286 4.6758 4.79261 4.6758C4.17337 4.6758 3.74129 4.90279 3.33908 5.30002C3.05435 5.58177 2.71486 6.19902 2.71486 6.75355L2.71586 6.75255ZM20.0427 10.472C20.3384 10.472 20.5783 10.7119 20.5783 11.0076C20.5783 11.3033 20.3384 11.5432 20.0427 11.5432C19.747 11.5432 19.5071 11.3033 19.5071 11.0076C19.5071 10.7119 19.747 10.472 20.0427 10.472ZM16.4945 11.583C16.6369 11.583 16.7524 11.6985 16.7524 11.8409C16.7524 11.9833 16.6369 12.0987 16.4945 12.0987C16.3521 12.0987 16.2366 11.9833 16.2366 11.8409C16.2366 11.6985 16.3521 11.583 16.4945 11.583ZM18.5523 10.9618V11.1988C18.414 11.1988 18.409 11.2187 18.2895 11.2256L17.4473 11.2525C17.0819 11.2525 17.2262 11.2734 17.0122 11.1092C16.1699 10.462 15.2132 11.6736 15.928 12.4044C16.4089 12.8952 16.8858 12.502 17.1237 12.4542L19.7888 12.4621C20.3394 12.4621 20.7973 12.2172 21.0522 11.7264C21.4335 10.9917 21.0293 9.7522 19.8147 9.7522C19.4912 9.7522 19.1626 9.91646 18.9396 10.1136C18.7455 10.2848 18.5513 10.7318 18.5513 10.9618H18.5523ZM7.94855 20.1927C8.24424 20.1927 8.48417 20.4326 8.48417 20.7283C8.48417 21.024 8.24424 21.2639 7.94855 21.2639C7.65287 21.2639 7.41294 21.024 7.41294 20.7283C7.41294 20.4326 7.65287 20.1927 7.94855 20.1927ZM6.66228 20.6686C6.66228 21.4342 7.25166 22.0106 7.8719 22.0106C9.11138 22.0106 9.79035 20.6805 8.9043 19.7945C8.51404 19.4042 8.31194 19.3803 7.81913 19.3803C7.20885 19.3803 6.66129 20.0862 6.66129 20.6696L6.66228 20.6686ZM16.1212 16.0651C16.38 16.0651 16.5891 16.2752 16.5891 16.533C16.5891 16.7909 16.379 17.0009 16.1212 17.0009C15.8633 17.0009 15.6532 16.7909 15.6532 16.533C15.6532 16.2752 15.8633 16.0651 16.1212 16.0651ZM16.1212 15.5195C16.6817 15.5195 17.1356 15.9735 17.1356 16.534C17.1356 17.0945 16.6817 17.5485 16.1212 17.5485C15.5607 17.5485 15.1067 17.0945 15.1067 16.534C15.1067 15.9735 15.5607 15.5195 16.1212 15.5195ZM12.2643 9.80496C12.2235 9.0324 12.2046 8.06073 12.2633 7.30211C12.2813 7.06715 12.3271 7.03629 12.4565 6.88994C12.5083 6.8312 12.4963 6.82423 12.5521 6.77446L13.1932 6.1801C13.6263 5.74703 13.5207 5.73708 14.0474 5.83862C14.4108 5.90831 14.9444 5.93121 15.2321 5.69427C15.3088 5.63055 15.3596 5.6186 15.4392 5.55887C15.5716 5.45832 15.6363 5.30898 15.705 5.16761C15.7498 5.07502 15.7777 5.07602 15.8066 4.95356C15.9977 4.12724 15.3994 3.35966 14.7124 3.35966C14.3461 3.35966 14.0006 3.40247 13.7328 3.6424C13.2758 4.05158 13.466 4.1362 13.2639 4.43587C13.2609 4.44085 13.2559 4.44682 13.2529 4.4508C13.1663 4.56728 12.9911 4.64494 12.8517 4.78631C12.7482 4.89084 12.6875 4.9237 12.5779 5.0123C12.4814 5.08996 12.4206 5.21938 12.2932 5.25323C12.2932 4.60113 12.2225 4.76441 12.4973 4.50954L12.7352 4.27359C13.1155 3.83455 13.4252 3.30092 13.4252 2.59606C13.4252 2.49949 13.3993 2.46266 13.3834 2.37505C13.3226 2.0495 13.4063 2.08235 13.2151 1.70105C12.6715 0.616875 11.444 0.133029 10.3061 0.606919C10.0144 0.728378 9.73062 0.932469 9.53549 1.17837C9.32343 1.44519 9.13427 1.73291 9.07355 2.08434C9.04069 2.26952 9.00585 2.38799 9.00585 2.56918C9.00585 2.89473 9.14124 3.36763 9.27664 3.63942C9.42697 3.93908 9.66491 4.16209 9.90683 4.37713C10.1099 4.55733 10.1398 4.46474 10.1368 4.83111V6.88297C9.96458 6.84315 9.43394 6.24581 9.27465 6.08751C9.05562 5.86849 9.03173 5.87048 9.03173 5.56783C9.03173 5.20345 9.19003 5.09394 9.19003 4.59416C9.19003 3.64439 8.19147 3.10878 7.3781 3.43931C7.17998 3.51995 6.97091 3.70612 6.84746 3.88233C6.78175 3.97691 6.80166 3.99483 6.75487 4.10534L6.67323 4.3393C6.62246 4.53742 6.60255 4.68675 6.64934 4.89881C6.78772 5.52402 7.32135 5.88342 7.95353 5.88342L7.98937 6.37324C8.03218 6.57634 8.36271 6.7864 8.51205 6.95565C8.82366 7.30011 9.52653 8.0667 9.87398 8.32953C9.93869 8.37931 10.088 8.54457 10.105 8.62422L10.1368 18.9831C10.1368 19.7387 10.1627 20.4346 10.1627 21.1664C9.73162 21.3944 9.55739 22.0813 9.55739 22.5343C9.55739 23.3148 10.2961 24.0864 11.0836 24.0864C11.6232 24.0864 12.0503 23.9629 12.4067 23.6204C12.5531 23.4801 12.6198 23.3068 12.7133 23.1386C12.9762 22.6657 12.9075 21.918 12.563 21.5029C12.4336 21.3476 12.2414 21.2022 12.2414 21.1405V18.8786C12.2414 18.3469 13.0339 17.5365 13.5835 17.5365C13.5745 17.9348 13.5964 19.2828 13.5536 19.5655C13.5436 19.6292 13.4879 19.7029 13.3167 19.8741C13.007 20.2514 13.0279 20.8219 13.2261 21.2619C13.2898 21.4043 13.3973 21.5616 13.5118 21.6602C13.8274 21.93 14.3162 22.1102 14.8 21.9897C15.6184 21.7856 16.1251 20.6905 15.6353 19.906C15.5786 19.8154 15.479 19.7656 15.4392 19.6551C15.3775 19.4819 15.4223 19.4072 15.4253 19.2479C15.6114 19.3724 15.7289 19.5446 15.9101 19.684C16.0117 19.7616 16.0555 19.8114 16.1421 19.899C16.2386 19.9956 16.2854 20.0354 16.39 20.124C16.5871 20.2903 16.6866 20.3789 16.9326 20.5013C17.6065 20.8388 18.2616 20.6945 18.8182 20.2733C18.9635 20.1638 19.072 19.9976 19.1756 19.8423C19.4543 19.4241 19.4225 18.9891 19.4712 18.56C19.5081 18.2324 19.4782 17.3623 19.4742 16.985C19.4702 16.5937 19.6325 16.6873 19.6325 16.2224C19.6325 15.8361 19.2413 15.6051 18.9078 15.5514C18.6718 15.5135 18.5274 15.6141 18.3851 15.7107C18.2696 15.7893 18.1073 15.9954 18.1073 16.1427C18.1073 16.7421 18.2308 16.5848 18.2845 16.8068C18.3612 17.1224 18.3174 18.3579 18.3174 18.7203C18.3174 18.9204 18.2447 19.0677 18.1412 19.1752C17.7808 19.5486 17.3328 19.4221 16.9953 19.0956L14.6537 16.9651C14.5024 16.8197 14.3481 16.6734 14.1768 16.5479C13.6691 16.1786 12.9762 16.2333 12.4883 16.5997C12.4057 16.6614 12.3748 16.7192 12.2932 16.7729C12.344 16.1607 12.8806 16.0123 13.1613 15.642C13.2878 15.4757 13.7288 15.0158 13.9239 14.9053C14.0006 14.8624 14.2037 14.7738 14.3182 14.7738C14.9603 14.7738 16.7822 14.733 17.3467 14.7967C17.6703 14.8326 18.9954 14.7828 19.2373 14.6424C19.5489 14.4622 19.6285 14.3268 20.0785 14.3268C20.2418 14.3268 20.4549 14.4493 20.5604 14.5558C21.1438 15.1382 20.6948 15.629 20.2368 15.9058C20.1144 15.9795 20.0188 16.2055 20.0029 16.3558C19.9889 16.4852 20.0079 16.5898 20.0198 16.6754C20.0427 16.8436 20.0268 17.0238 20.0268 17.1941C20.4628 17.1941 20.6022 17.1473 20.9656 16.9492C21.1577 16.8436 21.554 16.4553 21.6655 16.2284C21.9104 15.7754 22 15.4668 22 14.9321C22 14.2761 21.4435 13.5055 20.869 13.2486C20.2259 12.9619 19.532 13.0017 18.9247 13.3552C18.8231 13.4139 18.7514 13.4597 18.6091 13.4866C18.4279 13.5204 17.9928 13.5344 17.7728 13.5045C16.7922 13.4816 15.487 13.5144 14.4516 13.5115C14.0534 13.5115 13.7378 13.5363 13.4799 13.6707C12.9891 13.9256 12.5252 14.6534 12.2683 14.7221C12.2683 14.5379 12.2424 14.4652 12.2424 14.2751V13.0386C12.2424 12.6971 12.3171 12.5209 12.6038 12.4532C13.242 12.3008 14.2087 12.7031 14.6557 11.585C14.9563 10.8334 14.4217 9.29324 15.2152 9.22455C16.2237 9.13694 17.5189 9.45552 18.399 9.01448C18.7624 8.83229 18.7654 8.84225 19.076 8.53462C19.2691 8.34347 19.4573 8.12444 19.527 7.85465C19.5917 7.60277 19.7669 7.6396 19.7669 6.80532C19.7669 5.10788 17.8773 4.10833 16.5473 5.03221C15.4531 5.79183 15.5278 7.04625 16.4268 7.96316C15.8285 7.96316 14.9374 7.89646 14.3839 8.07666C14.143 8.15531 13.9249 8.33451 13.7975 8.54258C13.5227 8.98959 13.5845 9.69644 13.5864 10.4093C13.5904 12.0729 12.2902 11.7981 12.2833 11.7165C12.1986 10.7806 12.2623 10.8583 12.2703 9.80496H12.2643Z" fill="white"/>
<mask id="mask0_286_856" style="mask-type:luminance" maskUnits="userSpaceOnUse" x="0" y="0" width="22" height="25">
<path d="M11.2369 1.78169C11.672 1.78169 12.0244 2.13412 12.0244 2.56918C12.0244 3.00424 11.672 3.35667 11.2369 3.35667C10.8018 3.35667 10.4494 3.00424 10.4494 2.56918C10.4494 2.13412 10.8018 1.78169 11.2369 1.78169ZM14.6129 4.06154C14.9086 4.06154 15.1485 4.30147 15.1485 4.59715C15.1485 4.89284 14.9086 5.13277 14.6129 5.13277C14.3172 5.13277 14.0773 4.89284 14.0773 4.59715C14.0773 4.30147 14.3172 4.06154 14.6129 4.06154ZM7.82212 4.09041C8.1178 4.09041 8.35773 4.33034 8.35773 4.62602C8.35773 4.92171 8.1178 5.16164 7.82212 5.16164C7.52643 5.16164 7.2865 4.92171 7.2865 4.62602C7.2865 4.33034 7.52643 4.09041 7.82212 4.09041ZM11.219 22.1161C11.5147 22.1161 11.7546 22.3561 11.7546 22.6518C11.7546 22.9474 11.5147 23.1874 11.219 23.1874C10.9233 23.1874 10.6834 22.9474 10.6834 22.6518C10.6834 22.3561 10.9233 22.1161 11.219 22.1161ZM14.4665 20.1728C14.7622 20.1728 15.0021 20.4127 15.0021 20.7084C15.0021 21.0041 14.7622 21.244 14.4665 21.244C14.1708 21.244 13.9309 21.0041 13.9309 20.7084C13.9309 20.4127 14.1708 20.1728 14.4665 20.1728ZM17.8186 5.83464C18.2138 5.83464 18.5334 6.15422 18.5334 6.54946C18.5334 6.9447 18.2138 7.26428 17.8186 7.26428C17.4234 7.26428 17.1038 6.9447 17.1038 6.54946C17.1038 6.15422 17.4234 5.83464 17.8186 5.83464ZM2.54561 10.6641C2.8413 10.6641 3.08123 10.9041 3.08123 11.1998C3.08123 11.4954 2.8413 11.7354 2.54561 11.7354C2.24993 11.7354 2.01 11.4954 2.01 11.1998C2.01 10.9041 2.24993 10.6641 2.54561 10.6641ZM2.43511 14.5916C2.73079 14.5916 2.97072 14.8316 2.97072 15.1273C2.97072 15.4229 2.73079 15.6629 2.43511 15.6629C2.13942 15.6629 1.89949 15.4229 1.89949 15.1273C1.89949 14.8316 2.13942 14.5916 2.43511 14.5916ZM5.97136 11.5641C6.11372 11.5641 6.22921 11.6796 6.22921 11.822C6.22921 11.9643 6.11372 12.0798 5.97136 12.0798C5.82899 12.0798 5.71351 11.9643 5.71351 11.822C5.71351 11.6796 5.82899 11.5641 5.97136 11.5641ZM7.7146 15.4857C7.16007 15.4857 6.69414 15.4588 6.13662 15.4598L4.95289 15.4339C4.78166 15.4339 4.69305 15.407 4.55865 15.407C4.55865 14.8923 4.48896 14.4264 4.22812 14.0282C3.5143 12.939 1.99805 12.718 1.0662 13.6508C0.570409 14.1486 0.363331 14.9192 0.538551 15.639C0.696846 16.2901 1.10702 16.7013 1.65359 17.0238C1.74617 17.0845 2.06276 17.207 2.1892 17.2249C2.89207 17.3245 3.3112 17.1333 3.50733 17.1174C3.50235 17.3583 2.95479 17.7715 2.95479 18.8268C2.95479 20.1798 4.50688 21.1206 5.72645 20.5202C5.98032 20.3948 6.27003 20.1668 6.42733 19.9319C6.45919 19.8841 6.47512 19.8383 6.50299 19.7975C6.54182 19.7397 6.57069 19.7308 6.61051 19.668C6.96095 19.1145 6.9042 18.116 6.24315 18.116C5.69957 18.116 5.68862 18.7053 5.65377 18.8417C5.378 19.907 3.94339 19.4321 4.1664 18.4594C4.37945 17.5266 5.44271 17.6948 6.24315 17.6948C6.42932 17.6948 6.63142 17.6789 6.81062 17.7058C7.00874 17.7356 7.78926 17.7008 7.92167 17.664C8.17754 17.5933 8.5001 17.437 8.65242 17.211C8.971 16.7361 9.03173 16.4832 9.03173 15.8013C9.03173 15.0456 8.80375 14.4413 8.23826 13.9903L7.77632 13.5841C7.71758 13.5344 7.68871 13.4915 7.62898 13.4418L7.02566 12.8872C6.5916 12.4581 6.62644 12.6871 6.69514 11.8857C6.70808 11.7374 6.68916 11.5741 6.61848 11.4267C6.56372 11.3113 6.4552 11.1838 6.35565 11.1101C5.70753 10.6373 5.3103 11.2505 5.11119 11.2505H3.90158C3.90158 10.8314 3.89958 10.6144 3.65468 10.2878C3.32016 9.84279 2.7965 9.6835 2.24595 9.80496C1.88257 9.88461 1.53213 10.1962 1.38478 10.469C1.26631 10.688 1.24839 11.0434 1.27527 11.2983C1.29618 11.4905 1.33102 11.5502 1.40668 11.6936C1.69241 12.2361 2.01995 12.4343 2.69196 12.4333C3.34505 12.4333 4.00611 12.4601 4.66518 12.4591C5.11915 12.4591 5.04946 12.3775 5.32822 12.7956C5.68862 13.3372 6.87235 14.3477 7.36814 14.8067C7.56626 15.0028 7.71659 15.0974 7.71659 15.4847L7.7146 15.4857ZM2.71586 6.75255C2.71586 7.21549 2.77658 7.5729 2.97769 7.96316C3.02846 8.06272 3.2226 8.37334 3.30822 8.448C3.58797 8.69092 3.60091 8.77355 4.03 8.9886C4.49493 9.22256 4.76871 9.22554 5.45068 9.22554C5.72545 9.22554 7.32633 9.18771 7.49557 9.25939C7.62798 9.31514 7.66382 9.32012 7.71858 9.45651C7.7813 9.61381 7.75541 9.62178 7.76537 9.83085C7.81017 10.7328 7.81515 11.7194 7.7803 12.6314C7.86393 13.2148 8.0282 13.2675 8.47222 13.623C8.63749 13.7554 8.78383 13.8599 8.97598 13.9615C8.97598 13.5712 9.00186 13.2755 9.00186 12.8833C9.00186 12.3964 9.04069 9.38881 8.94512 9.04733C8.79379 8.50575 8.51503 8.18717 7.96548 8.02688C7.51349 7.89447 5.48254 8.02091 5.04349 7.95022C4.61639 7.88053 4.30378 7.74912 4.09272 7.40166C3.76618 6.86306 4.12856 5.99095 4.81949 5.99095C5.22867 5.99095 5.57911 6.31948 5.65975 6.65001C5.70654 6.84215 5.67568 7.12689 5.74835 7.29713C5.86782 7.57589 6.37058 7.76803 6.66129 7.35985C7.15907 6.66096 6.53286 4.6758 4.79261 4.6758C4.17337 4.6758 3.74129 4.90279 3.33908 5.30002C3.05435 5.58177 2.71486 6.19902 2.71486 6.75355L2.71586 6.75255ZM20.0427 10.472C20.3384 10.472 20.5783 10.7119 20.5783 11.0076C20.5783 11.3033 20.3384 11.5432 20.0427 11.5432C19.747 11.5432 19.5071 11.3033 19.5071 11.0076C19.5071 10.7119 19.747 10.472 20.0427 10.472ZM16.4945 11.583C16.6369 11.583 16.7524 11.6985 16.7524 11.8409C16.7524 11.9833 16.6369 12.0987 16.4945 12.0987C16.3521 12.0987 16.2366 11.9833 16.2366 11.8409C16.2366 11.6985 16.3521 11.583 16.4945 11.583ZM18.5523 10.9618V11.1988C18.414 11.1988 18.409 11.2187 18.2895 11.2256L17.4473 11.2525C17.0819 11.2525 17.2262 11.2734 17.0122 11.1092C16.1699 10.462 15.2132 11.6736 15.928 12.4044C16.4089 12.8952 16.8858 12.502 17.1237 12.4542L19.7888 12.4621C20.3394 12.4621 20.7973 12.2172 21.0522 11.7264C21.4335 10.9917 21.0293 9.7522 19.8147 9.7522C19.4912 9.7522 19.1626 9.91646 18.9396 10.1136C18.7455 10.2848 18.5513 10.7318 18.5513 10.9618H18.5523ZM7.94855 20.1927C8.24424 20.1927 8.48417 20.4326 8.48417 20.7283C8.48417 21.024 8.24424 21.2639 7.94855 21.2639C7.65287 21.2639 7.41294 21.024 7.41294 20.7283C7.41294 20.4326 7.65287 20.1927 7.94855 20.1927ZM6.66228 20.6686C6.66228 21.4342 7.25166 22.0106 7.8719 22.0106C9.11138 22.0106 9.79035 20.6805 8.9043 19.7945C8.51404 19.4042 8.31194 19.3803 7.81913 19.3803C7.20885 19.3803 6.66129 20.0862 6.66129 20.6696L6.66228 20.6686ZM16.1212 16.0651C16.38 16.0651 16.5891 16.2752 16.5891 16.533C16.5891 16.7909 16.379 17.0009 16.1212 17.0009C15.8633 17.0009 15.6532 16.7909 15.6532 16.533C15.6532 16.2752 15.8633 16.0651 16.1212 16.0651ZM16.1212 15.5195C16.6817 15.5195 17.1356 15.9735 17.1356 16.534C17.1356 17.0945 16.6817 17.5485 16.1212 17.5485C15.5607 17.5485 15.1067 17.0945 15.1067 16.534C15.1067 15.9735 15.5607 15.5195 16.1212 15.5195ZM12.2643 9.80496C12.2235 9.0324 12.2046 8.06073 12.2633 7.30211C12.2813 7.06715 12.3271 7.03629 12.4565 6.88994C12.5083 6.8312 12.4963 6.82423 12.5521 6.77446L13.1932 6.1801C13.6263 5.74703 13.5207 5.73708 14.0474 5.83862C14.4108 5.90831 14.9444 5.93121 15.2321 5.69427C15.3088 5.63055 15.3596 5.6186 15.4392 5.55887C15.5716 5.45832 15.6363 5.30898 15.705 5.16761C15.7498 5.07502 15.7777 5.07602 15.8066 4.95356C15.9977 4.12724 15.3994 3.35966 14.7124 3.35966C14.3461 3.35966 14.0006 3.40247 13.7328 3.6424C13.2758 4.05158 13.466 4.1362 13.2639 4.43587C13.2609 4.44085 13.2559 4.44682 13.2529 4.4508C13.1663 4.56728 12.9911 4.64494 12.8517 4.78631C12.7482 4.89084 12.6875 4.9237 12.5779 5.0123C12.4814 5.08996 12.4206 5.21938 12.2932 5.25323C12.2932 4.60113 12.2225 4.76441 12.4973 4.50954L12.7352 4.27359C13.1155 3.83455 13.4252 3.30092 13.4252 2.59606C13.4252 2.49949 13.3993 2.46266 13.3834 2.37505C13.3226 2.0495 13.4063 2.08235 13.2151 1.70105C12.6715 0.616875 11.444 0.133029 10.3061 0.606919C10.0144 0.728378 9.73062 0.932469 9.53549 1.17837C9.32343 1.44519 9.13427 1.73291 9.07355 2.08434C9.04069 2.26952 9.00585 2.38799 9.00585 2.56918C9.00585 2.89473 9.14124 3.36763 9.27664 3.63942C9.42697 3.93908 9.66491 4.16209 9.90683 4.37713C10.1099 4.55733 10.1398 4.46474 10.1368 4.83111V6.88297C9.96458 6.84315 9.43394 6.24581 9.27465 6.08751C9.05562 5.86849 9.03173 5.87048 9.03173 5.56783C9.03173 5.20345 9.19003 5.09394 9.19003 4.59416C9.19003 3.64439 8.19147 3.10878 7.3781 3.43931C7.17998 3.51995 6.97091 3.70612 6.84746 3.88233C6.78175 3.97691 6.80166 3.99483 6.75487 4.10534L6.67323 4.3393C6.62246 4.53742 6.60255 4.68675 6.64934 4.89881C6.78772 5.52402 7.32135 5.88342 7.95353 5.88342L7.98937 6.37324C8.03218 6.57634 8.36271 6.7864 8.51205 6.95565C8.82366 7.30011 9.52653 8.0667 9.87398 8.32953C9.93869 8.37931 10.088 8.54457 10.105 8.62422L10.1368 18.9831C10.1368 19.7387 10.1627 20.4346 10.1627 21.1664C9.73162 21.3944 9.55739 22.0813 9.55739 22.5343C9.55739 23.3148 10.2961 24.0864 11.0836 24.0864C11.6232 24.0864 12.0503 23.9629 12.4067 23.6204C12.5531 23.4801 12.6198 23.3068 12.7133 23.1386C12.9762 22.6657 12.9075 21.918 12.563 21.5029C12.4336 21.3476 12.2414 21.2022 12.2414 21.1405V18.8786C12.2414 18.3469 13.0339 17.5365 13.5835 17.5365C13.5745 17.9348 13.5964 19.2828 13.5536 19.5655C13.5436 19.6292 13.4879 19.7029 13.3167 19.8741C13.007 20.2514 13.0279 20.8219 13.2261 21.2619C13.2898 21.4043 13.3973 21.5616 13.5118 21.6602C13.8274 21.93 14.3162 22.1102 14.8 21.9897C15.6184 21.7856 16.1251 20.6905 15.6353 19.906C15.5786 19.8154 15.479 19.7656 15.4392 19.6551C15.3775 19.4819 15.4223 19.4072 15.4253 19.2479C15.6114 19.3724 15.7289 19.5446 15.9101 19.684C16.0117 19.7616 16.0555 19.8114 16.1421 19.899C16.2386 19.9956 16.2854 20.0354 16.39 20.124C16.5871 20.2903 16.6866 20.3789 16.9326 20.5013C17.6065 20.8388 18.2616 20.6945 18.8182 20.2733C18.9635 20.1638 19.072 19.9976 19.1756 19.8423C19.4543 19.4241 19.4225 18.9891 19.4712 18.56C19.5081 18.2324 19.4782 17.3623 19.4742 16.985C19.4702 16.5937 19.6325 16.6873 19.6325 16.2224C19.6325 15.8361 19.2413 15.6051 18.9078 15.5514C18.6718 15.5135 18.5274 15.6141 18.3851 15.7107C18.2696 15.7893 18.1073 15.9954 18.1073 16.1427C18.1073 16.7421 18.2308 16.5848 18.2845 16.8068C18.3612 17.1224 18.3174 18.3579 18.3174 18.7203C18.3174 18.9204 18.2447 19.0677 18.1412 19.1752C17.7808 19.5486 17.3328 19.4221 16.9953 19.0956L14.6537 16.9651C14.5024 16.8197 14.3481 16.6734 14.1768 16.5479C13.6691 16.1786 12.9762 16.2333 12.4883 16.5997C12.4057 16.6614 12.3748 16.7192 12.2932 16.7729C12.344 16.1607 12.8806 16.0123 13.1613 15.642C13.2878 15.4757 13.7288 15.0158 13.9239 14.9053C14.0006 14.8624 14.2037 14.7738 14.3182 14.7738C14.9603 14.7738 16.7822 14.733 17.3467 14.7967C17.6703 14.8326 18.9954 14.7828 19.2373 14.6424C19.5489 14.4622 19.6285 14.3268 20.0785 14.3268C20.2418 14.3268 20.4549 14.4493 20.5604 14.5558C21.1438 15.1382 20.6948 15.629 20.2368 15.9058C20.1144 15.9795 20.0188 16.2055 20.0029 16.3558C19.9889 16.4852 20.0079 16.5898 20.0198 16.6754C20.0427 16.8436 20.0268 17.0238 20.0268 17.1941C20.4628 17.1941 20.6022 17.1473 20.9656 16.9492C21.1577 16.8436 21.554 16.4553 21.6655 16.2284C21.9104 15.7754 22 15.4668 22 14.9321C22 14.2761 21.4435 13.5055 20.869 13.2486C20.2259 12.9619 19.532 13.0017 18.9247 13.3552C18.8231 13.4139 18.7514 13.4597 18.6091 13.4866C18.4279 13.5204 17.9928 13.5344 17.7728 13.5045C16.7922 13.4816 15.487 13.5144 14.4516 13.5115C14.0534 13.5115 13.7378 13.5363 13.4799 13.6707C12.9891 13.9256 12.5252 14.6534 12.2683 14.7221C12.2683 14.5379 12.2424 14.4652 12.2424 14.2751V13.0386C12.2424 12.6971 12.3171 12.5209 12.6038 12.4532C13.242 12.3008 14.2087 12.7031 14.6557 11.585C14.9563 10.8334 14.4217 9.29324 15.2152 9.22455C16.2237 9.13694 17.5189 9.45552 18.399 9.01448C18.7624 8.83229 18.7654 8.84225 19.076 8.53462C19.2691 8.34347 19.4573 8.12444 19.527 7.85465C19.5917 7.60277 19.7669 7.6396 19.7669 6.80532C19.7669 5.10788 17.8773 4.10833 16.5473 5.03221C15.4531 5.79183 15.5278 7.04625 16.4268 7.96316C15.8285 7.96316 14.9374 7.89646 14.3839 8.07666C14.143 8.15531 13.9249 8.33451 13.7975 8.54258C13.5227 8.98959 13.5845 9.69644 13.5864 10.4093C13.5904 12.0729 12.2902 11.7981 12.2833 11.7165C12.1986 10.7806 12.2623 10.8583 12.2703 9.80496H12.2643Z" fill="white"/>
</mask>
<g mask="url(#mask0_286_856)">
<path d="M22.0557 0.279358H0.419037V24.2347H22.0557V0.279358Z" fill="white"/>
</g>
</svg>
