<svg width="375" height="79" viewBox="0 0 375 79" fill="none" xmlns="http://www.w3.org/2000/svg">
<rect width="375" height="79" fill="url(#paint0_linear_171_2918)"/>
<path fill-rule="evenodd" clip-rule="evenodd" d="M42.8113 39.9495V28.6025C42.8113 28.0312 43.0556 27.4872 43.4826 27.1076L52.9164 18.722C53.6742 18.0484 54.8161 18.0484 55.5739 18.722L65.0077 27.1076C65.4347 27.4872 65.679 28.0312 65.679 28.6025V39.9495C65.679 41.6063 64.3359 42.9495 62.679 42.9495H45.8113C44.1544 42.9495 42.8113 41.6063 42.8113 39.9495ZM49.1634 35.3269C48.4618 35.3269 47.893 35.8957 47.893 36.5973C47.893 37.299 48.4618 37.8678 49.1634 37.8678H59.3269C60.0285 37.8678 60.5973 37.299 60.5973 36.5973C60.5973 35.8957 60.0285 35.3269 59.3269 35.3269H49.1634Z" fill="white"/>
<rect x="40.7935" y="46.3872" width="27.8" height="2.69032" rx="1.34516" fill="white"/>
<g opacity="0.43">
<path d="M143.523 42.7999C150.261 42.7999 155.805 37.6695 156.467 31.097C156.538 30.3996 155.983 29.7967 155.285 29.7967C154.682 29.7967 154.174 30.2459 154.115 30.8369C153.595 36.2274 149.044 40.4357 143.523 40.4357C139.835 40.4357 136.584 38.5561 134.681 35.7072H136.431C137.081 35.7072 137.613 35.1753 137.613 34.5251C137.613 33.875 137.081 33.343 136.431 33.343H131.702C131.052 33.343 130.52 33.875 130.52 34.5251V39.2536C130.52 39.9037 131.052 40.4357 131.702 40.4357C132.352 40.4357 132.884 39.9037 132.884 39.2536V37.2794C135.237 40.613 139.126 42.7999 143.523 42.7999ZM143.523 16.7935C136.785 16.7935 131.241 21.9238 130.579 28.4964C130.52 29.1938 131.064 29.7967 131.761 29.7967C132.364 29.7967 132.872 29.3475 132.932 28.7564C133.452 23.366 138.003 19.1577 143.523 19.1577C147.211 19.1577 150.462 21.0372 152.365 23.8861H150.616C149.966 23.8861 149.434 24.4181 149.434 25.0682C149.434 25.7184 149.966 26.2503 150.616 26.2503H155.344C155.995 26.2503 156.526 25.7184 156.526 25.0682V20.3398C156.526 19.6896 155.995 19.1577 155.344 19.1577C154.694 19.1577 154.162 19.6896 154.162 20.3398V22.3139C151.81 18.9804 147.921 16.7935 143.523 16.7935ZM142.483 22.5622C142.483 21.9829 142.956 21.5219 143.523 21.5219C144.091 21.5219 144.564 21.9829 144.564 22.5622V22.9995C145.828 23.2241 146.632 23.8979 147.117 24.5363C147.519 25.0564 147.306 25.813 146.691 26.073C146.266 26.2503 145.769 26.1085 145.486 25.742C145.155 25.2928 144.564 24.8318 143.594 24.8318C142.767 24.8318 141.455 25.2692 141.455 26.4749C141.455 27.598 142.471 28.0235 144.575 28.721C147.412 29.7021 148.133 31.1443 148.133 32.7992C148.133 35.8964 145.178 36.4993 144.564 36.6056V37.043C144.564 37.6104 144.102 38.0833 143.523 38.0833C142.944 38.0833 142.483 37.6223 142.483 37.043V36.5465C141.738 36.3692 140.202 35.8255 139.303 34.0641C139.031 33.544 139.339 32.8584 139.882 32.6456C140.367 32.4564 140.946 32.6338 141.194 33.0948C141.573 33.8159 142.317 34.7143 143.701 34.7143C144.8 34.7143 146.041 34.1469 146.041 32.8111C146.041 31.6762 145.214 31.0852 143.346 30.4114C142.046 29.9504 139.386 29.1938 139.386 26.4986C139.386 26.3804 139.398 23.6615 142.483 22.9995V22.5622Z" fill="white"/>
</g>
<path opacity="0.43" d="M222.788 22.8019H223.159C224.59 22.8019 225.76 23.9722 225.76 25.4026V38.4058C225.76 39.8362 224.59 41.0065 223.159 41.0065H222.788C221.357 41.0065 220.187 39.8362 220.187 38.4058V25.4026C220.187 23.9722 221.357 22.8019 222.788 22.8019ZM233.19 15C234.621 15 235.791 16.1703 235.791 17.6006V38.4058C235.791 39.8362 234.621 41.0065 233.19 41.0065C231.76 41.0065 230.59 39.8362 230.59 38.4058V17.6006C230.59 16.1703 231.76 15 233.19 15ZM243.593 29.8608C245.023 29.8608 246.193 31.0311 246.193 32.4615V38.4058C246.193 39.8362 245.023 41.0065 243.593 41.0065C242.162 41.0065 240.992 39.8362 240.992 38.4058V32.4615C240.992 31.0311 242.162 29.8608 243.593 29.8608Z" fill="white"/>
<g opacity="0.43" clip-path="url(#clip0_171_2918)">
<path d="M321.99 26.9856C320.199 26.9856 318.724 26.4202 317.565 25.2895C316.407 24.1588 315.828 22.719 315.828 20.9702C315.828 19.2213 316.407 17.7891 317.565 16.6735C318.724 15.5578 320.199 15 321.99 15C323.782 15 325.257 15.5578 326.415 16.6735C327.573 17.7891 328.153 19.2213 328.153 20.9702C328.153 22.719 327.573 24.1588 326.415 25.2895C325.257 26.4202 323.782 26.9856 321.99 26.9856ZM308.09 40.7803V37.3429C308.09 36.3781 308.353 35.5338 308.878 34.8101C309.403 34.0865 310.083 33.5287 310.917 33.1367C312.894 32.2924 314.785 31.6592 316.592 31.2371C318.399 30.8149 320.199 30.6039 321.99 30.6039C323.782 30.6039 325.581 30.8225 327.388 31.2597C329.195 31.6969 331.072 32.3226 333.018 33.1367C333.883 33.5287 334.578 34.0865 335.103 34.8101C335.628 35.5338 335.89 36.3781 335.89 37.3429V40.7803H308.09Z" fill="white"/>
</g>
<defs>
<linearGradient id="paint0_linear_171_2918" x1="2.70013e-07" y1="41.0271" x2="375" y2="41.0271" gradientUnits="userSpaceOnUse">
<stop stop-color="#06115D"/>
<stop offset="0.475203" stop-color="#0361DA"/>
<stop offset="0.99589" stop-color="#20A5EF"/>
</linearGradient>
<clipPath id="clip0_171_2918">
<rect width="27.8" height="26.0065" fill="white" transform="translate(308.09 15)"/>
</clipPath>
</defs>
</svg>
