<svg width="136" height="13" viewBox="0 0 136 13" fill="none" xmlns="http://www.w3.org/2000/svg">
<path d="M9.51047 1.11012V3.00012H6.39948V12.7847H4.05788V3.00012H0.946897V1.11012H9.51047ZM18.3776 10.5601H13.7278L12.9584 12.7847H10.4998L14.6979 1.09339H17.4242L21.6224 12.7847H19.147L18.3776 10.5601ZM17.742 8.68687L16.0527 3.80296L14.3634 8.68687H17.742ZM31.705 4.72287C31.705 5.3473 31.5544 5.9327 31.2534 6.47907C30.9635 7.02545 30.5007 7.46589 29.8651 7.8004C29.2407 8.13492 28.449 8.30218 27.4901 8.30218H25.5332V12.7847H23.1916V1.11012H27.4901C28.3933 1.11012 29.1627 1.26622 29.7982 1.57844C30.4338 1.89065 30.9077 2.31994 31.2199 2.86632C31.5433 3.41269 31.705 4.03154 31.705 4.72287ZM27.3897 6.41217C28.0365 6.41217 28.5159 6.26721 28.8281 5.9773C29.1404 5.67624 29.2965 5.25809 29.2965 4.72287C29.2965 3.58552 28.6609 3.01685 27.3897 3.01685H25.5332V6.41217H27.3897ZM45.2976 1.11012V3.00012H42.1866V12.7847H39.845V3.00012H36.7341V1.11012H45.2976ZM52.4253 12.9017C51.3325 12.9017 50.329 12.6453 49.4146 12.1324C48.5003 11.6194 47.7755 10.9114 47.2403 10.0082C46.7051 9.09386 46.4375 8.06244 46.4375 6.91394C46.4375 5.77659 46.7051 4.75632 47.2403 3.85313C47.7755 2.93879 48.5003 2.22516 49.4146 1.71224C50.329 1.19932 51.3325 0.94286 52.4253 0.94286C53.5292 0.94286 54.5327 1.19932 55.4359 1.71224C56.3502 2.22516 57.0694 2.93879 57.5935 3.85313C58.1287 4.75632 58.3963 5.77659 58.3963 6.91394C58.3963 8.06244 58.1287 9.09386 57.5935 10.0082C57.0694 10.9114 56.3502 11.6194 55.4359 12.1324C54.5215 12.6453 53.518 12.9017 52.4253 12.9017ZM52.4253 10.811C53.1277 10.811 53.7466 10.6549 54.2818 10.3427C54.817 10.0193 55.2352 9.56218 55.5362 8.9712C55.8373 8.38023 55.9878 7.69447 55.9878 6.91394C55.9878 6.13341 55.8373 5.45323 55.5362 4.8734C55.2352 4.28243 54.817 3.83083 54.2818 3.51862C53.7466 3.20641 53.1277 3.0503 52.4253 3.0503C51.7228 3.0503 51.0984 3.20641 50.552 3.51862C50.0168 3.83083 49.5986 4.28243 49.2975 4.8734C48.9965 5.45323 48.846 6.13341 48.846 6.91394C48.846 7.69447 48.9965 8.38023 49.2975 8.9712C49.5986 9.56218 50.0168 10.0193 50.552 10.3427C51.0984 10.6549 51.7228 10.811 52.4253 10.811ZM63.5552 6.93067C63.5552 5.78217 63.8116 4.75632 64.3246 3.85313C64.8486 2.93879 65.5567 2.23074 66.4487 1.72897C67.3519 1.21605 68.361 0.959585 69.4761 0.959585C70.7807 0.959585 71.9236 1.2941 72.9049 1.96313C73.8861 2.63216 74.5719 3.55765 74.9621 4.7396H72.2693C72.0017 4.18207 71.6226 3.76393 71.1319 3.48517C70.6525 3.20641 70.0949 3.06703 69.4594 3.06703C68.7792 3.06703 68.1715 3.22871 67.6363 3.55207C67.1122 3.86428 66.6996 4.3103 66.3986 4.89013C66.1086 5.46995 65.9637 6.15013 65.9637 6.93067C65.9637 7.70005 66.1086 8.38023 66.3986 8.9712C66.6996 9.55103 67.1122 10.0026 67.6363 10.326C68.1715 10.6382 68.7792 10.7943 69.4594 10.7943C70.0949 10.7943 70.6525 10.6549 71.1319 10.3762C71.6226 10.0863 72.0017 9.66253 72.2693 9.10501H74.9621C74.5719 10.2981 73.8861 11.2292 72.9049 11.8982C71.9348 12.5561 70.7918 12.885 69.4761 12.885C68.361 12.885 67.3519 12.6341 66.4487 12.1324C65.5567 11.6194 64.8486 10.9114 64.3246 10.0082C63.8116 9.10501 63.5552 8.07917 63.5552 6.93067ZM82.3813 12.9017C81.2885 12.9017 80.285 12.6453 79.3707 12.1324C78.4563 11.6194 77.7315 10.9114 77.1963 10.0082C76.6611 9.09386 76.3935 8.06244 76.3935 6.91394C76.3935 5.77659 76.6611 4.75632 77.1963 3.85313C77.7315 2.93879 78.4563 2.22516 79.3707 1.71224C80.285 1.19932 81.2885 0.94286 82.3813 0.94286C83.4852 0.94286 84.4887 1.19932 85.3919 1.71224C86.3063 2.22516 87.0255 2.93879 87.5495 3.85313C88.0848 4.75632 88.3524 5.77659 88.3524 6.91394C88.3524 8.06244 88.0848 9.09386 87.5495 10.0082C87.0255 10.9114 86.3063 11.6194 85.3919 12.1324C84.4776 12.6453 83.474 12.9017 82.3813 12.9017ZM82.3813 10.811C83.0838 10.811 83.7026 10.6549 84.2378 10.3427C84.7731 10.0193 85.1912 9.56218 85.4923 8.9712C85.7933 8.38023 85.9439 7.69447 85.9439 6.91394C85.9439 6.13341 85.7933 5.45323 85.4923 4.8734C85.1912 4.28243 84.7731 3.83083 84.2378 3.51862C83.7026 3.20641 83.0838 3.0503 82.3813 3.0503C81.6788 3.0503 81.0544 3.20641 80.508 3.51862C79.9728 3.83083 79.5546 4.28243 79.2536 4.8734C78.9525 5.45323 78.802 6.13341 78.802 6.91394C78.802 7.69447 78.9525 8.38023 79.2536 8.9712C79.5546 9.56218 79.9728 10.0193 80.508 10.3427C81.0544 10.6549 81.6788 10.811 82.3813 10.811ZM92.4361 10.9281H96.283V12.7847H90.0945V1.11012H92.4361V10.9281ZM100.113 10.9281H103.96V12.7847H97.7713V1.11012H100.113V10.9281ZM107.79 3.00012V5.92712H111.72V7.78368H107.79V10.8779H112.222V12.7847H105.448V1.09339H112.222V3.00012H107.79ZM113.781 6.93067C113.781 5.78217 114.038 4.75632 114.551 3.85313C115.075 2.93879 115.783 2.23074 116.675 1.72897C117.578 1.21605 118.587 0.959585 119.702 0.959585C121.007 0.959585 122.15 1.2941 123.131 1.96313C124.112 2.63216 124.798 3.55765 125.188 4.7396H122.495C122.228 4.18207 121.849 3.76393 121.358 3.48517C120.879 3.20641 120.321 3.06703 119.686 3.06703C119.005 3.06703 118.398 3.22871 117.862 3.55207C117.338 3.86428 116.926 4.3103 116.625 4.89013C116.335 5.46995 116.19 6.15013 116.19 6.93067C116.19 7.70005 116.335 8.38023 116.625 8.9712C116.926 9.55103 117.338 10.0026 117.862 10.326C118.398 10.6382 119.005 10.7943 119.686 10.7943C120.321 10.7943 120.879 10.6549 121.358 10.3762C121.849 10.0863 122.228 9.66253 122.495 9.10501H125.188C124.798 10.2981 124.112 11.2292 123.131 11.8982C122.161 12.5561 121.018 12.885 119.702 12.885C118.587 12.885 117.578 12.6341 116.675 12.1324C115.783 11.6194 115.075 10.9114 114.551 10.0082C114.038 9.10501 113.781 8.07917 113.781 6.93067ZM135.133 1.11012V3.00012H132.022V12.7847H129.68V3.00012H126.569V1.11012H135.133Z" fill="white"/>
</svg>
