<svg width="162" height="56" viewBox="0 0 162 56" fill="none" xmlns="http://www.w3.org/2000/svg">
<g filter="url(#filter0_d_120_4955)">
<g filter="url(#filter1_b_120_4955)">
<rect x="6" y="1" width="150" height="43.4211" rx="21.7105" fill="#D9D9D9" fill-opacity="0.02"/>
<rect x="6" y="1" width="150" height="43.4211" rx="21.7105" stroke="url(#paint0_linear_120_4955)" stroke-width="0.433612"/>
</g>
<path d="M60.2161 15.503V17.2154H55.8195V31.6316H53.7137V17.2154H49.294V15.503H60.2161ZM84.1839 28.0449H77.1493L75.8535 31.6316H73.632L79.4633 15.5956H81.893L87.7012 31.6316H85.4797L84.1839 28.0449ZM83.5822 26.3325L80.6666 18.1872L77.751 26.3325H83.5822ZM112.868 20.2236C112.868 21.5657 112.405 22.6841 111.48 23.5789C110.569 24.4582 109.173 24.8978 107.291 24.8978H104.19V31.6316H102.085V15.503H107.291C109.112 15.503 110.492 15.9427 111.433 16.822C112.39 17.7013 112.868 18.8352 112.868 20.2236ZM107.291 23.1623C108.464 23.1623 109.328 22.9078 109.883 22.3987C110.438 21.8896 110.716 21.1646 110.716 20.2236C110.716 18.2335 109.574 17.2385 107.291 17.2385H104.19V23.1623H107.291Z" fill="white"/>
</g>
<defs>
<filter id="filter0_d_120_4955" x="0.520038" y="0.783188" width="160.96" height="54.381" filterUnits="userSpaceOnUse" color-interpolation-filters="sRGB">
<feFlood flood-opacity="0" result="BackgroundImageFix"/>
<feColorMatrix in="SourceAlpha" type="matrix" values="0 0 0 0 0 0 0 0 0 0 0 0 0 0 0 0 0 0 127 0" result="hardAlpha"/>
<feOffset dy="5.26316"/>
<feGaussianBlur stdDeviation="2.63158"/>
<feComposite in2="hardAlpha" operator="out"/>
<feColorMatrix type="matrix" values="0 0 0 0 0 0 0 0 0 0 0 0 0 0 0 0 0 0 0.58 0"/>
<feBlend mode="normal" in2="BackgroundImageFix" result="effect1_dropShadow_120_4955"/>
<feBlend mode="normal" in="SourceGraphic" in2="effect1_dropShadow_120_4955" result="shape"/>
</filter>
<filter id="filter1_b_120_4955" x="-93.9537" y="-98.9537" width="349.907" height="243.328" filterUnits="userSpaceOnUse" color-interpolation-filters="sRGB">
<feFlood flood-opacity="0" result="BackgroundImageFix"/>
<feGaussianBlur in="BackgroundImageFix" stdDeviation="49.8684"/>
<feComposite in2="SourceAlpha" operator="in" result="effect1_backgroundBlur_120_4955"/>
<feBlend mode="normal" in="SourceGraphic" in2="effect1_backgroundBlur_120_4955" result="shape"/>
</filter>
<linearGradient id="paint0_linear_120_4955" x1="6" y1="22.7105" x2="156" y2="22.7105" gradientUnits="userSpaceOnUse">
<stop stop-color="white" stop-opacity="0.45"/>
<stop offset="1" stop-color="#999999"/>
</linearGradient>
</defs>
</svg>
