<svg width="144" height="108" viewBox="0 0 144 108" fill="none" xmlns="http://www.w3.org/2000/svg">
<rect x="0.5" y="0.5" width="143" height="107" rx="4.5" stroke="#9747FF" stroke-dasharray="10 5"/>
<rect x="57" y="20" width="30" height="30" rx="5" fill="white"/>
<path fill-rule="evenodd" clip-rule="evenodd" d="M74.2731 28H79L73.3956 35.0696L76.0185 38.0348L78.6415 41H76.2177L72.25 36.5146L68.7269 40.9587H64L69.7673 33.6837L69.7571 33.6963L64.7914 28.0826H67.2151L70.9028 32.2514L74.2731 28ZM76.3908 29.2381H74.9193L66.6092 39.7206H68.0807L76.3908 29.2381Z" fill="url(#paint0_linear_171_3258)"/>
<rect x="57" y="58" width="30" height="30" rx="5" fill="white"/>
<path fill-rule="evenodd" clip-rule="evenodd" d="M74.2731 66H79L73.3956 73.0696L76.0185 76.0348L78.6415 79H76.2177L72.25 74.5146L68.7269 78.9587H64L69.7673 71.6837L69.7571 71.6963L64.7914 66.0826H67.2151L70.9028 70.2514L74.2731 66ZM76.3908 67.2381H74.9193L66.6092 77.7206H68.0807L76.3908 67.2381Z" fill="#D9D9D9" fill-opacity="0.85098"/>
<rect x="20" y="20" width="30" height="30" rx="5" fill="white"/>
<path d="M42.2477 29.1669C41.0825 28.6218 39.8367 28.2256 38.5342 28C38.3742 28.2892 38.1873 28.6782 38.0585 28.9876C36.6739 28.7794 35.302 28.7794 33.9429 28.9876C33.814 28.6782 33.6229 28.2892 33.4615 28C32.1576 28.2256 30.9103 28.6232 29.7451 29.1698C27.395 32.7212 26.7579 36.1844 27.0764 39.5984C28.6352 40.7625 30.1458 41.4696 31.6309 41.9323C31.9976 41.4277 32.3247 40.8912 32.6064 40.3258C32.0698 40.1219 31.5559 39.8703 31.0703 39.5782C31.1991 39.4828 31.3251 39.383 31.4469 39.2803C34.4086 40.6656 37.6267 40.6656 40.5531 39.2803C40.6762 39.383 40.8022 39.4828 40.9296 39.5782C40.4426 39.8717 39.9273 40.1233 39.3907 40.3273C39.6724 40.8912 39.9981 41.4291 40.3662 41.9338C41.8527 41.471 43.3647 40.7639 44.9235 39.5984C45.2973 35.6407 44.285 32.2093 42.2477 29.1669ZM33.0099 37.4989C32.1208 37.4989 31.3917 36.6688 31.3917 35.6581C31.3917 34.6473 32.1052 33.8159 33.0099 33.8159C33.9146 33.8159 34.6437 34.6459 34.6281 35.6581C34.6295 36.6688 33.9146 37.4989 33.0099 37.4989ZM38.9901 37.4989C38.101 37.4989 37.3718 36.6688 37.3718 35.6581C37.3718 34.6473 38.0854 33.8159 38.9901 33.8159C39.8947 33.8159 40.6238 34.6459 40.6083 35.6581C40.6083 36.6688 39.8947 37.4989 38.9901 37.4989Z" fill="url(#paint1_linear_171_3258)"/>
<rect x="20" y="58" width="30" height="30" rx="5" fill="white"/>
<path d="M42.2477 67.1669C41.0825 66.6218 39.8367 66.2256 38.5342 66C38.3742 66.2892 38.1873 66.6782 38.0585 66.9876C36.6739 66.7794 35.302 66.7794 33.9429 66.9876C33.814 66.6782 33.6229 66.2892 33.4615 66C32.1576 66.2256 30.9103 66.6232 29.7451 67.1698C27.395 70.7212 26.7579 74.1844 27.0764 77.5984C28.6352 78.7625 30.1458 79.4696 31.6309 79.9323C31.9976 79.4277 32.3247 78.8912 32.6064 78.3258C32.0698 78.1219 31.5559 77.8703 31.0703 77.5782C31.1991 77.4828 31.3251 77.383 31.4469 77.2803C34.4086 78.6656 37.6267 78.6656 40.5531 77.2803C40.6762 77.383 40.8022 77.4828 40.9296 77.5782C40.4426 77.8717 39.9273 78.1233 39.3907 78.3273C39.6724 78.8912 39.9981 79.4291 40.3662 79.9338C41.8527 79.471 43.3647 78.7639 44.9235 77.5984C45.2973 73.6407 44.285 70.2093 42.2477 67.1669ZM33.0099 75.4989C32.1208 75.4989 31.3917 74.6688 31.3917 73.6581C31.3917 72.6473 32.1052 71.8159 33.0099 71.8159C33.9146 71.8159 34.6437 72.6459 34.6281 73.6581C34.6295 74.6688 33.9146 75.4989 33.0099 75.4989ZM38.9901 75.4989C38.101 75.4989 37.3718 74.6688 37.3718 73.6581C37.3718 72.6473 38.0854 71.8159 38.9901 71.8159C39.8947 71.8159 40.6238 72.6459 40.6083 73.6581C40.6083 74.6688 39.8947 75.4989 38.9901 75.4989Z" fill="#D9D9D9"/>
<g clip-path="url(#clip0_171_3258)">
<rect x="94" y="20" width="30" height="30" rx="5" fill="url(#paint2_linear_171_3258)"/>
<path fill-rule="evenodd" clip-rule="evenodd" d="M94 20V50H124V20H94ZM119.372 26.6382L115.848 43.5923C115.765 43.9926 115.295 44.1739 114.964 43.9333L110.153 40.44C109.86 40.2279 109.462 40.2392 109.183 40.4672L106.515 42.6418C106.205 42.8949 105.739 42.7538 105.62 42.3726L103.768 36.4153L98.9821 34.6293C98.496 34.4471 98.4918 33.7608 98.9766 33.5741L118.617 25.9973C119.034 25.8363 119.463 26.201 119.372 26.6382Z" fill="white"/>
<path fill-rule="evenodd" clip-rule="evenodd" d="M114.675 29.7041L105.322 35.4645C104.963 35.6857 104.794 36.1187 104.91 36.524L105.921 40.0772C105.993 40.3289 106.359 40.3032 106.394 40.0431L106.656 38.0946C106.706 37.7277 106.881 37.3895 107.152 37.1371L114.871 29.962C115.016 29.8282 114.843 29.6009 114.675 29.7041Z" fill="white"/>
</g>
<g clip-path="url(#clip1_171_3258)">
<rect x="94" y="58" width="30" height="30" rx="5" fill="#D9D9D9"/>
<path fill-rule="evenodd" clip-rule="evenodd" d="M94 58V88H124V58H94ZM119.372 64.6382L115.848 81.5923C115.765 81.9926 115.295 82.1739 114.964 81.9333L110.153 78.44C109.86 78.2279 109.462 78.2392 109.183 78.4672L106.515 80.6418C106.205 80.8949 105.739 80.7538 105.62 80.3726L103.768 74.4153L98.9821 72.6293C98.496 72.4471 98.4918 71.7608 98.9766 71.5741L118.617 63.9973C119.034 63.8363 119.463 64.201 119.372 64.6382Z" fill="white"/>
<path fill-rule="evenodd" clip-rule="evenodd" d="M114.675 67.7041L105.322 73.4645C104.963 73.6857 104.794 74.1187 104.91 74.524L105.921 78.0772C105.993 78.3289 106.359 78.3032 106.394 78.0431L106.656 76.0946C106.706 75.7277 106.881 75.3895 107.152 75.1371L114.871 67.962C115.016 67.8282 114.843 67.6009 114.675 67.7041Z" fill="white"/>
</g>
<defs>
<linearGradient id="paint0_linear_171_3258" x1="73.6869" y1="29.6677" x2="70.0958" y2="40.2249" gradientUnits="userSpaceOnUse">
<stop stop-color="#1AEFED"/>
<stop offset="1" stop-color="#1047D6"/>
</linearGradient>
<linearGradient id="paint1_linear_171_3258" x1="33.3757" y1="29.7875" x2="36.8873" y2="41.3454" gradientUnits="userSpaceOnUse">
<stop stop-color="#1AEFED"/>
<stop offset="1" stop-color="#1047D6"/>
</linearGradient>
<linearGradient id="paint2_linear_171_3258" x1="104.626" y1="23.8485" x2="113.871" y2="47.402" gradientUnits="userSpaceOnUse">
<stop stop-color="#1AEFED"/>
<stop offset="1" stop-color="#1047D6"/>
</linearGradient>
<clipPath id="clip0_171_3258">
<rect x="94" y="20" width="30" height="30" rx="5" fill="white"/>
</clipPath>
<clipPath id="clip1_171_3258">
<rect x="94" y="58" width="30" height="30" rx="5" fill="white"/>
</clipPath>
</defs>
</svg>
